Coordinates
version=1
nRows=13
nColumns=40
inDegrees=yes

Units are S.I. units (second, meters, Newtons, ...)
Angles are in degrees.

endheader
time	pelvis_tilt	pelvis_list	pelvis_rotation	pelvis_tx	pelvis_ty	pelvis_tz	hip_flexion_r	hip_adduction_r	hip_rotation_r	knee_angle_r	knee_angle_r_beta	ankle_angle_r	subtalar_angle_r	mtp_angle_r	hip_flexion_l	hip_adduction_l	hip_rotation_l	knee_angle_l	knee_angle_l_beta	ankle_angle_l	subtalar_angle_l	mtp_angle_l	lumbar_extension	lumbar_bending	lumbar_rotation	arm_flex_r	arm_add_r	arm_rot_r	elbow_flex_r	pro_sup_r	wrist_flex_r	wrist_dev_r	arm_flex_l	arm_add_l	arm_rot_l	elbow_flex_l	pro_sup_l	wrist_flex_l	wrist_dev_l
     24.28000000	     -2.86554134	     -4.77038365	      0.39333243	      0.94790280	      0.93222961	      0.50919679	     12.10437587	      3.42847726	    -16.99559249	     17.64946782	     17.64946782	      9.84843585	     -2.36016584	     -2.10189567	     28.09803927	    -12.13536017	      1.20138435	     63.28999323	     63.28999323	      9.43075383	    -18.80891769	     13.84399873	     -8.91399344	      5.71137569	      3.13580126	     13.40025031	    -14.23206009	     -6.26503640	     49.68053728	     44.90304979	      0.00000000	      0.00000000	      8.91727126	     -7.02006647	     -2.33839859	     26.24164069	     45.25934980	      0.00000000	      0.00000000
     24.29242857	     -3.03460258	     -4.69671024	      0.62132965	      0.94585935	      0.93293368	      0.51016791	     11.43868702	      3.51658259	    -17.20021761	     16.81706737	     16.81706737	      9.88977970	     -1.97860966	     -2.01637320	     29.36818799	    -12.03868790	      0.85872992	     60.90936927	     60.90936927	      9.83956386	    -18.83655105	     14.07956736	     -8.85611277	      5.55485997	      3.08699268	     15.57774247	    -14.29268849	     -6.41729750	     51.10129870	     44.87821116	      0.00000000	      0.00000000	      7.70846262	     -7.00084536	     -2.22418249	     25.28724362	     45.23499691	      0.00000000	      0.00000000
     24.30485714	     -3.15404994	     -4.65835897	      0.88251540	      0.94383801	      0.93351666	      0.51102511	     10.76219114	      3.61957387	    -17.47488552	     16.07257312	     16.07257312	      9.99241378	     -1.56224326	     -2.02725580	     30.39685851	    -11.86847018	      0.60097035	     58.23537934	     58.23537934	     10.13041312	    -18.85138114	     14.24832045	     -8.89099744	      5.45607228	      3.06979530	     17.72857382	    -14.43347776	     -6.56442468	     52.81175408	     44.84395328	      0.00000000	      0.00000000	      6.48871684	     -6.95943587	     -2.09213665	     24.44901891	     45.20766886	      0.00000000	      0.00000000
     24.31728571	     -3.28314055	     -4.59266857	      1.12336304	      0.94185587	      0.93401548	      0.51179074	     10.10893726	      3.69491180	    -17.72145546	     15.33421679	     15.33421679	     10.07806398	     -1.16161700	     -2.05237669	     31.20503935	    -11.61916956	      0.30849030	     55.23268578	     55.23268578	     10.31091752	    -18.79230184	     14.41942763	     -8.91227016	      5.33367712	      3.14812014	     19.74367617	    -14.63023929	     -6.72082523	     54.51130147	     44.80928356	      0.00000000	      0.00000000	      5.31250875	     -6.91907676	     -1.96212508	     23.77926983	     45.17775381	      0.00000000	      0.00000000
     24.32971429	     -3.42251434	     -4.55373752	      1.35938917	      0.93989010	      0.93436440	      0.51237398	      9.49184154	      3.78448672	    -17.98360195	     14.63104382	     14.63104382	     10.15945980	     -0.76110047	     -2.11356033	     31.85799052	    -11.30119245	      0.09471998	     51.99335252	     51.99335252	     10.37315654	    -18.67444354	     14.55977818	     -8.95226491	      5.32069631	      3.26848700	     21.67744446	    -14.88998355	     -6.90420005	     56.16817635	     44.77673831	      0.00000000	      0.00000000	      4.16116784	     -6.87542586	     -1.82810925	     23.24170891	     45.14419747	      0.00000000	      0.00000000
     24.34214286	     -3.56819010	     -4.49915039	      1.58181773	      0.93801566	      0.93453614	      0.51287284	      8.86498058	      3.86323901	    -18.21963675	     13.89148949	     13.89148949	     10.27516315	     -0.34603475	     -2.20470946	     32.35540986	    -10.88749488	     -0.01840767	     48.56667931	     48.56667931	     10.40428836	    -18.45832154	     14.61886430	     -8.92288987	      5.18595631	      3.43353860	     23.61956630	    -15.16870888	     -7.11097915	     57.79079399	     44.74589788	      0.00000000	      0.00000000	      3.00350912	     -6.80786739	     -1.69065247	     22.80818550	     45.10623513	      0.00000000	      0.00000000
     24.35457143	     -3.81723216	     -4.48689044	      1.78071093	      0.93607929	      0.93428474	      0.51314694	      8.44266714	      3.95425566	    -18.38581318	     13.31738583	     13.31738583	     10.43050314	     -0.06385576	     -2.30665162	     32.90584921	    -10.45397262	     -0.03837110	     45.12382720	     45.12382720	     10.53635921	    -17.94514609	     14.67734214	     -8.78525587	      5.20166118	      3.76663701	     25.52994418	    -15.64487192	     -7.35177267	     59.04960916	     44.72617590	      0.00000000	      0.00000000	      1.93001574	     -6.66746175	     -1.60185754	     22.49642513	     45.07324220	      0.00000000	      0.00000000
     24.36700000	     -3.84233038	     -4.45370042	      2.02795113	      0.93442428	      0.93446134	      0.51327361	      7.56153764	      4.07150021	    -18.74847335	     12.35523458	     12.35523458	     10.45658276	      0.62376287	     -2.49634068	     32.93989515	     -9.93437663	      0.02976329	     41.30811752	     41.30811752	     10.36456710	    -17.33064358	     14.34744989	     -8.93248320	      5.16527540	      3.64872276	     27.31581691	    -15.65119293	     -7.56342707	     60.91041074	     44.68772182	      0.00000000	      0.00000000	      0.67402618	     -6.73002894	     -1.42526052	     22.27169440	     45.02091796	      0.00000000	      0.00000000
     24.37942857	     -3.98934133	     -4.54212264	      2.27612207	      0.93277722	      0.93398543	      0.51322147	      6.85919645	      4.27172744	    -19.31831128	     11.45541040	     11.45541040	     10.21803590	      1.44850727	     -3.87494501	     32.99706169	     -9.56795651	      0.09049687	     37.35685209	     37.35685209	      8.96860337	    -16.54152338	     10.27221050	     -8.96911091	      5.31270428	      4.04708432	     28.50048142	    -16.25274069	     -8.05432049	     63.88229199	     44.67963188	      0.00000000	      0.00000000	     -0.86083382	     -6.84056297	      0.02278863	     23.53445964	     44.75248092	      0.00000000	      0.00000000
     24.39185714	     -4.20825703	     -4.55560329	      2.47310851	      0.93107910	      0.93344198	      0.51309824	      6.34449771	      4.40933122	    -19.40856899	     10.78221383	     10.78221383	     10.39019327	      1.67135634	     -3.94437577	     33.18109341	     -9.10784312	      0.19834977	     33.79171948	     33.79171948	      9.19649241	    -14.97902335	     10.45111691	     -8.81737677	      5.33946154	      4.24674963	     30.28990411	    -16.56200222	     -8.26929936	     64.78482766	     44.67239423	      0.00000000	      0.00000000	     -1.86485776	     -6.78291330	      0.19622623	     23.23017900	     44.70907887	      0.00000000	      0.00000000
     24.40428571	     -4.32254880	     -4.61965515	      2.69624198	      0.92950819	      0.93297985	      0.51285719	      5.59193572	      4.63435730	    -19.63907036	      9.87495306	      9.87495306	     10.47460184	      2.16418989	     -4.09273380	     33.19308425	     -8.73349529	      0.25379027	     30.35145646	     30.35145646	      9.30934264	    -13.09242617	     10.50773354	     -8.85057121	      5.41359056	      4.25049715	     32.02054615	    -16.70567940	     -8.47749632	     65.87599076	     44.65945111	      0.00000000	      0.00000000	     -2.97391302	     -6.74888430	      0.39772639	     23.07639947	     44.65678763	      0.00000000	      0.00000000
     24.41671429	     -4.48187739	     -4.74239608	      2.92735777	      0.92812761	      0.93218410	      0.51241759	      4.90625697	      4.89924548	    -19.89333593	      9.03444590	      9.03444590	     10.59911335	      2.64329025	     -4.32064689	     33.24652888	     -8.40168259	      0.35907559	     27.23383446	     27.23383446	      9.55751829	    -11.19194081	     10.53444071	     -8.67676789	      5.60403572	      4.35667024	     33.68635824	    -16.91693697	     -8.68153014	     66.89622037	     44.64735678	      0.00000000	      0.00000000	     -3.99572661	     -6.66133054	      0.56645536	     23.05802563	     44.60933009	      0.00000000	      0.00000000
     24.42914286	     -4.48126064	     -4.92175083	      3.17752263	      0.92696203	      0.93152371	      0.51192211	      3.90305068	      5.27982330	    -20.26284084	      7.92009803	      7.92009803	     10.58375531	      3.41146233	     -4.74018321	     33.17200116	     -8.19896974	      0.25735405	     24.55814927	     24.55814927	      9.71600980	     -9.21853991	     10.46300444	     -8.73484362	      5.82016479	      4.28012172	     35.30062351	    -17.01356990	     -8.90732438	     68.10600582	     44.63492628	      0.00000000	      0.00000000	     -5.21209390	     -6.67137455	      0.85229651	     23.31663395	     44.53776269	      0.00000000	      0.00000000
